<svg width="31" height="31" viewBox="0 0 31 31" fill="none" xmlns="http://www.w3.org/2000/svg">
<path d="M15.5 28.4173C14.1868 28.4173 12.8413 28.1805 11.4635 27.7069C10.0858 27.2333 8.83715 26.5875 7.71771 25.7694C6.59827 24.9513 5.67774 23.9934 4.95613 22.8954C4.23452 21.7975 3.87414 20.6243 3.875 19.3757V15.5007L9.04167 19.3757L7.03958 21.3777C7.66389 22.4757 8.65417 23.4229 10.0104 24.2194C11.3667 25.0159 12.766 25.5218 14.2083 25.7371V14.209H10.3333V11.6257H14.2083V10.1079C13.4549 9.82808 12.8357 9.35964 12.3509 8.70261C11.8661 8.04558 11.6241 7.29771 11.625 6.45898C11.625 5.3826 12.0017 4.46767 12.7552 3.71419C13.5087 2.96072 14.4236 2.58398 15.5 2.58398C16.5764 2.58398 17.4913 2.96072 18.2448 3.71419C18.9983 4.46767 19.375 5.3826 19.375 6.45898C19.375 7.29857 19.1326 8.04687 18.6478 8.7039C18.163 9.36093 17.5443 9.82851 16.7917 10.1067V11.6257H20.6667V14.209H16.7917V25.7371C18.234 25.5218 19.6333 25.0159 20.9896 24.2194C22.3458 23.4229 23.3361 22.4757 23.9604 21.3777L21.9583 19.3757L27.125 15.5007V19.3757C27.125 20.6243 26.7642 21.7975 26.0426 22.8954C25.321 23.9934 24.4009 24.9513 23.2823 25.7694C22.1628 26.5875 20.9142 27.2333 19.5365 27.7069C18.1587 28.1805 16.8132 28.4173 15.5 28.4173ZM15.5 7.75065C15.866 7.75065 16.173 7.62665 16.421 7.37865C16.669 7.13065 16.7925 6.8241 16.7917 6.45898C16.7917 6.09301 16.6677 5.78603 16.4197 5.53803C16.1717 5.29003 15.8651 5.16646 15.5 5.16732C15.134 5.16732 14.827 5.29132 14.579 5.53932C14.331 5.78732 14.2075 6.09387 14.2083 6.45898C14.2083 6.82496 14.3323 7.13194 14.5803 7.37994C14.8283 7.62794 15.1349 7.75151 15.5 7.75065Z" fill="white"/>
</svg>
