<svg width="69" height="64" viewBox="0 0 69 64" fill="none" xmlns="http://www.w3.org/2000/svg">
<path id="Vector" d="M24.3452 9.14285L40.9181 9.14285C41.4343 9.14285 41.9419 9.27432 42.3934 9.52489C42.8448 9.77547 43.2252 10.1369 43.4987 10.5752L54.0158 27.4286L67.43 27.4286C67.6943 27.4284 67.954 27.4971 68.1836 27.6279C68.4133 27.7588 68.605 27.9473 68.7398 28.1749C68.8746 28.4025 68.9479 28.6613 68.9525 28.9259C68.9571 29.1904 68.8928 29.4517 68.766 29.6838L56.7851 51.6785C54.1052 52.0381 51.3781 51.675 48.8852 50.6265C46.3923 49.5781 44.2239 47.8823 42.604 45.7143C41.1881 47.6082 39.3505 49.1453 37.2374 50.2034C35.1243 51.2614 32.794 51.8114 30.4315 51.8095C28.069 51.8114 25.7386 51.2614 23.6255 50.2034C21.5124 49.1453 19.6749 47.6082 18.2589 45.7143C16.6731 47.8362 14.5613 49.5064 12.1326 50.5594C9.70398 51.6125 7.04276 52.0119 4.41256 51.7181L0.651233 31.0217C0.571434 30.5824 0.588976 30.131 0.702618 29.6993C0.816261 29.2676 1.02323 28.8661 1.30888 28.5234C1.59454 28.1806 1.9519 27.9049 2.35571 27.7157C2.75951 27.5265 3.19988 27.4285 3.64569 27.4286H6.08629L6.08629 12.1905C6.08629 11.3822 6.40691 10.607 6.97761 10.0355C7.54831 9.46394 8.32235 9.14285 9.12944 9.14285H12.1726L12.1726 0L24.3452 0L24.3452 9.14285ZM12.1726 27.4286L46.8401 27.4286L39.2322 15.2381L12.1726 15.2381L12.1726 27.4286ZM6.08629 57.9047C10.5788 57.9109 14.9147 56.2522 18.2589 53.248C21.6031 56.2522 25.939 57.9109 30.4315 57.9047C34.924 57.9109 39.2599 56.2522 42.604 53.248C45.9482 56.2522 50.2841 57.9109 54.7766 57.9047H60.8629L60.8629 64H54.7766C50.503 64.007 46.3035 62.8819 42.604 60.739C38.9046 62.8819 34.7051 64.007 30.4315 64C26.1578 64.007 21.9583 62.8819 18.2589 60.739C14.5595 62.8819 10.36 64.007 6.08629 64H3.83489e-09L3.46966e-09 57.9047H6.08629Z" fill="white"/>
</svg>
